<svg width="20" height="20" viewBox="0 0 20 20" fill="none" xmlns="http://www.w3.org/2000/svg">
<path fill-rule="evenodd" clip-rule="evenodd" d="M17.9603 16.0534C16.1336 18.4519 13.2476 20 10 20C9.04789 20 8.12685 19.8669 7.25448 19.6184C8.58615 19.225 9.55899 17.9946 9.55899 16.5356C9.55899 14.759 8.11633 13.3212 6.33979 13.3212C5.38893 13.3212 4.62059 12.5523 4.62059 11.6068C4.62059 9.83016 3.17793 8.39239 1.40139 8.39239H0.128539C0.897537 3.63384 5.0244 0 10 0C11.7259 0 13.3497 0.437232 14.7666 1.20697C14.4292 1.71514 14.232 2.3252 14.232 2.98135C14.232 3.92682 13.4637 4.69576 12.5128 4.69576C10.7362 4.69576 9.29359 6.13354 9.29359 7.91018C9.29359 9.68682 10.7362 11.1246 12.5128 11.1246C13.4637 11.1246 14.232 11.8935 14.232 12.839C14.232 14.6157 15.6747 16.0534 17.4512 16.0534H17.9603ZM18.9055 14.5534H17.4512C16.5003 14.5534 15.732 13.7845 15.732 12.839C15.732 11.0624 14.2893 9.62459 12.5128 9.62459C11.5619 9.62459 10.7936 8.85565 10.7936 7.91018C10.7936 6.96471 11.5619 6.19576 12.5128 6.19576C14.2893 6.19576 15.732 4.75799 15.732 2.98135C15.732 2.62532 15.8405 2.29446 16.0274 2.01992C18.4407 3.84556 20 6.74068 20 10C20 11.64 19.6052 13.1877 18.9055 14.5534ZM0.000567079 9.89239C0.000189341 9.92821 0 9.96408 0 10C0 13.1414 1.44852 15.9445 3.71407 17.7778C3.91857 17.9433 4.12973 18.1008 4.34707 18.25L6.33979 18.25C7.29065 18.25 8.05899 17.4811 8.05899 16.5356C8.05899 15.5902 7.29065 14.8212 6.33979 14.8212C4.56325 14.8212 3.12059 13.3834 3.12059 11.6068C3.12059 10.6613 2.35225 9.89239 1.40139 9.89239H0.000567079Z" fill="#FF9F43"/>
</svg>
