<svg width="81" height="75" viewBox="0 0 81 75" fill="none" xmlns="http://www.w3.org/2000/svg">
<path d="M2.56137 62.425L9.08759 31.6585C9.93985 27.6407 13.1621 24.5526 17.2125 23.8718L60.2185 16.644C65.6335 15.7339 70.7695 19.3604 71.7237 24.7678L78.4286 62.7621C79.5092 68.8855 74.7988 74.5 68.5808 74.5H12.3437C5.98574 74.5 1.24206 68.6446 2.56137 62.425Z" fill="#8E8EEB" stroke="#8E8EEB"/>
<path d="M25 22C21.1987 -0.176556 50.8677 -4.19096 54.5 17" stroke="#8E8EEB" stroke-width="4" stroke-linecap="round"/>
<path d="M29.4473 50.8887L28.4219 49.6973L35.1699 42.207L35.209 42.1582L34.1445 42.0215V40.7812H38.7051V42.0215L37.3672 42.2656L29.4473 50.8887ZM26.0684 55V53.7695L27.6602 53.4961V42.2949L26.0684 42.0215V40.7812H31.1758V42.0215L29.584 42.2949V53.4961L31.1758 53.7695V55H26.0684ZM34.4668 55V53.7695L35.6387 53.6328L35.6289 53.623L31.6934 48.1641L32.7676 46.6504L37.9043 53.5254L39.2129 53.7695V55H34.4668ZM47.8633 55.2051C46.9974 55.2051 46.1641 55.0781 45.3633 54.8242C44.5625 54.5703 43.7975 54.1797 43.0684 53.6523V50.6152H44.5625L44.8848 52.8516C45.3079 53.112 45.7669 53.3138 46.2617 53.457C46.7565 53.6003 47.2904 53.6719 47.8633 53.6719C48.5143 53.6719 49.0645 53.5742 49.5137 53.3789C49.9694 53.1771 50.3177 52.9004 50.5586 52.5488C50.7995 52.1973 50.9199 51.7871 50.9199 51.3184C50.9199 50.8822 50.8158 50.498 50.6074 50.166C50.3991 49.834 50.054 49.5443 49.5723 49.2969C49.097 49.043 48.446 48.8216 47.6191 48.6328C46.6426 48.4049 45.8158 48.1022 45.1387 47.7246C44.4681 47.3405 43.957 46.8783 43.6055 46.3379C43.2604 45.791 43.0879 45.166 43.0879 44.4629C43.0879 43.7207 43.2832 43.0566 43.6738 42.4707C44.071 41.8848 44.6211 41.4225 45.3242 41.084C46.0273 40.7454 46.8477 40.5762 47.7852 40.5762C48.7812 40.5762 49.6602 40.7292 50.4219 41.0352C51.1901 41.3346 51.8216 41.6992 52.3164 42.1289V44.9707H50.8223L50.5 42.9395C50.207 42.7051 49.8424 42.5098 49.4062 42.3535C48.9701 42.1973 48.4297 42.1191 47.7852 42.1191C47.2383 42.1191 46.7565 42.2168 46.3398 42.4121C45.9232 42.6009 45.5977 42.8678 45.3633 43.2129C45.1289 43.5579 45.0117 43.9648 45.0117 44.4336C45.0117 44.8438 45.1159 45.2018 45.3242 45.5078C45.5391 45.8138 45.8841 46.084 46.3594 46.3184C46.8411 46.5462 47.4824 46.7611 48.2832 46.9629C49.7806 47.334 50.9134 47.8841 51.6816 48.6133C52.4564 49.3359 52.8438 50.2311 52.8438 51.2988C52.8438 52.0605 52.6387 52.7376 52.2285 53.3301C51.8184 53.916 51.2389 54.375 50.4902 54.707C49.748 55.0391 48.8724 55.2051 47.8633 55.2051Z" fill="white"/>
</svg>
