<svg width="276" height="152" viewBox="0 0 276 152" fill="none" xmlns="http://www.w3.org/2000/svg">
<path fill-rule="evenodd" clip-rule="evenodd" d="M0 5.70704C0 2.94561 2.23858 0.707031 5 0.707031H271C273.761 0.707031 276 2.94561 276 5.70703V65.995C271.237 65.995 267.375 70.492 267.375 76.0393C267.375 81.5867 271.237 86.0836 276 86.0836V146.372C276 149.133 273.761 151.372 271 151.372H5C2.23858 151.372 0 149.133 0 146.372V85.0791C4.39097 85.0791 8.01557 81.2579 8.55558 76.3152H13.7626V74.3152H8.60321C8.28644 69.1037 4.55569 64.9904 0 64.9904V5.70704ZM28.6302 74.3152H22.6302V76.3152H28.6302V74.3152ZM37.4979 74.3152H43.4979V76.3152H37.4979V74.3152ZM58.3655 74.3152H52.3655V76.3152H58.3655V74.3152ZM67.2332 74.3152H73.2332V76.3152H67.2332V74.3152ZM88.1008 74.3152H82.1008V76.3152H88.1008V74.3152ZM96.9685 74.3152H102.968V76.3152H96.9685V74.3152ZM117.836 74.3152H111.836V76.3152H117.836V74.3152ZM126.704 74.3152H132.704V76.3152H126.704V74.3152ZM147.571 74.3152H141.571V76.3152H147.571V74.3152ZM156.439 74.3152H162.439V76.3152H156.439V74.3152ZM177.307 74.3152H171.307V76.3152H177.307V74.3152ZM186.174 74.3152H192.174V76.3152H186.174V74.3152ZM207.042 74.3152H201.042V76.3152H207.042V74.3152ZM215.91 74.3152H221.91V76.3152H215.91V74.3152ZM236.777 74.3152H230.777V76.3152H236.777V74.3152ZM245.645 74.3152H251.645V76.3152H245.645V74.3152ZM266.513 74.3152H260.513V76.3152H266.513V74.3152Z" fill="#8E8EEB"/>
</svg>
