<svg width="20" height="20" viewBox="0 0 20 20" fill="none" xmlns="http://www.w3.org/2000/svg">
<path fill-rule="evenodd" clip-rule="evenodd" d="M16.5625 3.61446H18C19.1046 3.61446 20 4.47752 20 5.54217V6.50602C20 7.57067 19.1046 8.43373 18 8.43373H2C0.895431 8.43373 0 7.57067 0 6.50602V5.54217C0 4.47752 0.895431 3.61446 2 3.61446H3.43747C3.31643 3.31573 3.25 2.99064 3.25 2.6506C3.25 1.18672 4.48122 0 6 0C7.67947 0 9.15536 0.840119 10 2.10813C10.8446 0.840118 12.3205 0 14 0C15.5188 0 16.75 1.18672 16.75 2.6506C16.75 2.99064 16.6836 3.31573 16.5625 3.61446ZM5.24988 3.61446H9.09325C8.67147 2.35602 7.44602 1.44578 6 1.44578C5.30964 1.44578 4.75 1.9852 4.75 2.6506C4.75 3.04472 4.94634 3.39464 5.24988 3.61446ZM14.7501 3.61446C15.0537 3.39464 15.25 3.04472 15.25 2.6506C15.25 1.9852 14.6904 1.44578 14 1.44578C12.554 1.44578 11.3285 2.35602 10.9067 3.61446H14.7501ZM18 9.87961H2V18.0724C2 19.137 2.89543 20.0001 4 20.0001H16C17.1046 20.0001 18 19.137 18 18.0724V9.87961Z" fill="#39DF67"/>
</svg>
