<svg width="20" height="20" viewBox="0 0 20 20" fill="none" xmlns="http://www.w3.org/2000/svg">
<path fill-rule="evenodd" clip-rule="evenodd" d="M16 0H4C1.79086 0 0 1.79086 0 4V16C0 17.8642 1.27532 19.4306 3.00111 19.8743C3.32039 19.9563 3.6551 20 4 20H16C16.3449 20 16.6796 19.9563 16.9989 19.8743C18.7247 19.4306 20 17.8642 20 16V4C20 1.79086 18.2091 0 16 0ZM10 11C12.4617 11 14.5783 12.6062 15.5115 14.9071C15.9491 15.986 15.0067 17 13.8425 17H6.15752C4.99332 17 4.05092 15.986 4.48849 14.9071C5.42174 12.6062 7.53834 11 10 11ZM10 3C11.6569 3 13 4.34315 13 6C13 7.65685 11.6569 9 10 9C8.34315 9 7 7.65685 7 6C7 4.34315 8.34315 3 10 3Z" fill="#C6A915" fill-opacity="0.5"/>
</svg>
