<svg width="20" height="21" viewBox="0 0 20 21" fill="none" xmlns="http://www.w3.org/2000/svg">
<path fill-rule="evenodd" clip-rule="evenodd" d="M8.77018 0.776409C9.54438 0.389309 10.4557 0.389309 11.2299 0.776409L18.5466 4.43477C19.8364 5.07969 19.8364 6.92035 18.5466 7.56526L11.2299 11.2236C10.4557 11.6107 9.54438 11.6107 8.77018 11.2236L1.45346 7.56526C0.163622 6.92034 0.163629 5.07968 1.45346 4.43477L8.77018 0.776409ZM0.314584 15.6953C0.482812 15.3168 0.926034 15.1464 1.30455 15.3146L9.49227 18.9536C9.81548 19.0972 10.1844 19.0972 10.5076 18.9536L18.6953 15.3146C19.0739 15.1464 19.5171 15.3168 19.6853 15.6953C19.8535 16.0739 19.6831 16.5171 19.3045 16.6853L11.1168 20.3243C10.4058 20.6403 9.59412 20.6403 8.88306 20.3243L0.695339 16.6853C0.316826 16.5171 0.146356 16.0739 0.314584 15.6953ZM1.30455 10.8146C0.926034 10.6464 0.482812 10.8168 0.314584 11.1953C0.146356 11.5739 0.316826 12.0171 0.695339 12.1853L8.88306 15.8243C9.59412 16.1403 10.4058 16.1403 11.1168 15.8243L19.3045 12.1853C19.6831 12.0171 19.8535 11.5739 19.6853 11.1953C19.5171 10.8168 19.0739 10.6464 18.6953 10.8146L10.5076 14.4536C10.1844 14.5972 9.81548 14.5972 9.49227 14.4536L1.30455 10.8146Z" fill="#F23859" fill-opacity="0.6"/>
</svg>
