<svg width="20" height="21" viewBox="0 0 20 21" fill="none" xmlns="http://www.w3.org/2000/svg">
<path fill-rule="evenodd" clip-rule="evenodd" d="M8.93939 0.5H11.0606C12.2321 0.5 13.1818 1.39543 13.1818 2.5C13.1818 3.76402 14.5343 4.56765 15.6445 3.96331L15.7572 3.90193C16.7718 3.34965 18.0691 3.6774 18.6548 4.63398L19.7155 6.36603C20.3012 7.32262 19.9536 8.5458 18.939 9.09808C17.8283 9.7027 17.8283 11.2973 18.939 11.9019C19.9536 12.4542 20.3012 13.6774 19.7155 14.634L18.6548 16.366C18.0691 17.3226 16.7718 17.6504 15.7572 17.0981L15.6445 17.0367C14.5343 16.4324 13.1818 17.236 13.1818 18.5C13.1818 19.6046 12.2321 20.5 11.0606 20.5H8.93939C7.76787 20.5 6.81817 19.6046 6.81817 18.5C6.81817 17.236 5.46574 16.4324 4.35556 17.0367L4.24279 17.0981C3.22823 17.6504 1.93091 17.3226 1.34515 16.366L0.284544 14.634C-0.301215 13.6774 0.0464004 12.4542 1.06096 11.9019C2.17168 11.2973 2.17168 9.70269 1.06097 9.09807C0.046402 8.54578 -0.301214 7.3226 0.284545 6.36602L1.34516 4.63397C1.93091 3.67738 3.22823 3.34963 4.2428 3.90192L4.35556 3.9633C5.46574 4.56764 6.81817 3.76401 6.81817 2.5C6.81817 1.39543 7.76787 0.5 8.93939 0.5ZM10 13.8333C11.841 13.8333 13.3333 12.341 13.3333 10.5C13.3333 8.65905 11.841 7.16667 10 7.16667C8.15906 7.16667 6.66668 8.65905 6.66668 10.5C6.66668 12.341 8.15906 13.8333 10 13.8333Z" fill="#8E8EEB"/>
</svg>
