<svg xmlns="http://www.w3.org/2000/svg" xmlns:xlink="http://www.w3.org/1999/xlink" version="1.1" width="256" height="256" viewBox="0 0 256 256" xml:space="preserve">

<defs>
</defs>
<g style="stroke: none; stroke-width: 0; stroke-dasharray: none; stroke-linecap: butt; stroke-linejoin: miter; stroke-miterlimit: 10; fill: none; fill-rule: nonzero; opacity: 1;" transform="translate(1.4065934065934016 1.4065934065934016) scale(2.81 2.81)" >
	<polygon points="5.89,14.39 20.29,14.39 20.29,0 " style="stroke: none; stroke-width: 1; stroke-dasharray: none; stroke-linecap: butt; stroke-linejoin: miter; stroke-miterlimit: 10; fill: rgb(255,255,255); fill-rule: nonzero; opacity: 1;" transform="  matrix(1 0 0 1 0 0) "/>
	<path d="M 70.834 0 H 20.289 L 5.894 14.395 v 71.626 C 5.894 88.218 7.676 90 9.873 90 h 60.961 c 2.198 0 3.979 -1.781 3.979 -3.979 v -3.075 v -3.542 V 59.338 V 31.585 V 9.788 V 4.894 V 3.979 C 74.814 1.782 73.032 0 70.834 0 z" style="stroke: none; stroke-width: 1; stroke-dasharray: none; stroke-linecap: butt; stroke-linejoin: miter; stroke-miterlimit: 10; fill: rgb(159,124,230); fill-rule: nonzero; opacity: 1;" transform=" matrix(1 0 0 1 0 0) " stroke-linecap="round" />
	<polygon points="5.89,14.39 20.29,14.39 20.29,0 " style="stroke: none; stroke-width: 1; stroke-dasharray: none; stroke-linecap: butt; stroke-linejoin: miter; stroke-miterlimit: 10; fill: rgb(255,255,255); fill-rule: nonzero; opacity: 1;" transform="  matrix(1 0 0 1 0 0) "/>
	<polygon points="27.61,24.3 17.03,24.3 17.03,38.19 31.87,38.19 31.87,32.71 31.87,24.3 " style="stroke: none; stroke-width: 1; stroke-dasharray: none; stroke-linecap: butt; stroke-linejoin: miter; stroke-miterlimit: 10; fill: rgb(255,255,255); fill-rule: nonzero; opacity: 1;" transform="  matrix(1 0 0 1 0 0) "/>
	<polygon points="27.61,45.32 17.03,45.32 17.03,59.2 31.87,59.2 31.87,53.73 31.87,45.32 " style="stroke: none; stroke-width: 1; stroke-dasharray: none; stroke-linecap: butt; stroke-linejoin: miter; stroke-miterlimit: 10; fill: rgb(255,255,255); fill-rule: nonzero; opacity: 1;" transform="  matrix(1 0 0 1 0 0) "/>
	<polygon points="27.61,66.34 17.03,66.34 17.03,80.22 31.87,80.22 31.87,74.75 31.87,66.34 " style="stroke: none; stroke-width: 1; stroke-dasharray: none; stroke-linecap: butt; stroke-linejoin: miter; stroke-miterlimit: 10; fill: rgb(255,255,255); fill-rule: nonzero; opacity: 1;" transform="  matrix(1 0 0 1 0 0) "/>
	<path d="M 24.581 34.989 c -0.028 0 -0.057 -0.001 -0.085 -0.004 c -0.311 -0.026 -0.591 -0.196 -0.758 -0.459 l -3.027 -4.757 c -0.296 -0.466 -0.159 -1.084 0.307 -1.38 c 0.464 -0.297 1.083 -0.16 1.38 0.307 l 2.324 3.652 l 8.116 -8.922 c 0.372 -0.408 1.005 -0.438 1.413 -0.067 c 0.409 0.372 0.438 1.004 0.067 1.413 l -8.997 9.891 C 25.13 34.872 24.861 34.989 24.581 34.989 z" style="stroke: none; stroke-width: 1; stroke-dasharray: none; stroke-linecap: butt; stroke-linejoin: miter; stroke-miterlimit: 10; fill: rgb(81,93,114); fill-rule: nonzero; opacity: 1;" transform=" matrix(1 0 0 1 0 0) " stroke-linecap="round" />
	<path d="M 63.674 28.799 H 38.814 c -0.552 0 -1 -0.448 -1 -1 s 0.448 -1 1 -1 h 24.859 c 0.553 0 1 0.448 1 1 S 64.227 28.799 63.674 28.799 z" style="stroke: none; stroke-width: 1; stroke-dasharray: none; stroke-linecap: butt; stroke-linejoin: miter; stroke-miterlimit: 10; fill: rgb(81,93,114); fill-rule: nonzero; opacity: 1;" transform=" matrix(1 0 0 1 0 0) " stroke-linecap="round" />
	<path d="M 61.279 35.486 H 38.814 c -0.552 0 -1 -0.448 -1 -1 s 0.448 -1 1 -1 h 22.465 c 0.553 0 1 0.448 1 1 S 61.832 35.486 61.279 35.486 z" style="stroke: none; stroke-width: 1; stroke-dasharray: none; stroke-linecap: butt; stroke-linejoin: miter; stroke-miterlimit: 10; fill: rgb(81,93,114); fill-rule: nonzero; opacity: 1;" transform=" matrix(1 0 0 1 0 0) " stroke-linecap="round" />
	<path d="M 24.581 56.005 c -0.028 0 -0.057 -0.001 -0.085 -0.004 c -0.311 -0.026 -0.591 -0.196 -0.758 -0.459 l -3.027 -4.756 c -0.296 -0.466 -0.159 -1.084 0.307 -1.381 c 0.466 -0.296 1.083 -0.16 1.381 0.307 l 2.324 3.652 l 8.116 -8.922 c 0.372 -0.408 1.005 -0.438 1.413 -0.067 c 0.409 0.372 0.438 1.004 0.067 1.413 l -8.997 9.89 C 25.13 55.887 24.861 56.005 24.581 56.005 z" style="stroke: none; stroke-width: 1; stroke-dasharray: none; stroke-linecap: butt; stroke-linejoin: miter; stroke-miterlimit: 10; fill: rgb(81,93,114); fill-rule: nonzero; opacity: 1;" transform=" matrix(1 0 0 1 0 0) " stroke-linecap="round" />
	<path d="M 60.605 49.815 H 38.814 c -0.552 0 -1 -0.447 -1 -1 s 0.448 -1 1 -1 h 21.791 c 0.553 0 1 0.447 1 1 S 61.158 49.815 60.605 49.815 z" style="stroke: none; stroke-width: 1; stroke-dasharray: none; stroke-linecap: butt; stroke-linejoin: miter; stroke-miterlimit: 10; fill: rgb(81,93,114); fill-rule: nonzero; opacity: 1;" transform=" matrix(1 0 0 1 0 0) " stroke-linecap="round" />
	<path d="M 58.212 56.503 H 38.814 c -0.552 0 -1 -0.447 -1 -1 s 0.448 -1 1 -1 h 19.397 c 0.553 0 1 0.447 1 1 S 58.765 56.503 58.212 56.503 z" style="stroke: none; stroke-width: 1; stroke-dasharray: none; stroke-linecap: butt; stroke-linejoin: miter; stroke-miterlimit: 10; fill: rgb(81,93,114); fill-rule: nonzero; opacity: 1;" transform=" matrix(1 0 0 1 0 0) " stroke-linecap="round" />
	<path d="M 24.581 77.021 c -0.028 0 -0.057 -0.001 -0.085 -0.004 c -0.311 -0.026 -0.591 -0.196 -0.758 -0.459 l -3.027 -4.757 c -0.296 -0.466 -0.159 -1.084 0.307 -1.381 c 0.464 -0.295 1.083 -0.158 1.38 0.307 l 2.324 3.652 l 8.116 -8.922 c 0.372 -0.408 1.005 -0.438 1.413 -0.067 c 0.409 0.372 0.438 1.005 0.067 1.413 l -8.997 9.891 C 25.13 76.903 24.861 77.021 24.581 77.021 z" style="stroke: none; stroke-width: 1; stroke-dasharray: none; stroke-linecap: butt; stroke-linejoin: miter; stroke-miterlimit: 10; fill: rgb(81,93,114); fill-rule: nonzero; opacity: 1;" transform=" matrix(1 0 0 1 0 0) " stroke-linecap="round" />
	<path d="M 56.515 70.832 h -17.7 c -0.552 0 -1 -0.447 -1 -1 s 0.448 -1 1 -1 h 17.7 c 0.553 0 1 0.447 1 1 S 57.067 70.832 56.515 70.832 z" style="stroke: none; stroke-width: 1; stroke-dasharray: none; stroke-linecap: butt; stroke-linejoin: miter; stroke-miterlimit: 10; fill: rgb(81,93,114); fill-rule: nonzero; opacity: 1;" transform=" matrix(1 0 0 1 0 0) " stroke-linecap="round" />
	<path d="M 59.234 77.519 h -20.42 c -0.552 0 -1 -0.447 -1 -1 s 0.448 -1 1 -1 h 20.42 c 0.553 0 1 0.447 1 1 S 59.787 77.519 59.234 77.519 z" style="stroke: none; stroke-width: 1; stroke-dasharray: none; stroke-linecap: butt; stroke-linejoin: miter; stroke-miterlimit: 10; fill: rgb(81,93,114); fill-rule: nonzero; opacity: 1;" transform=" matrix(1 0 0 1 0 0) " stroke-linecap="round" />
	<path d="M 75.705 67.726 l -11.967 -2.238 l 8.296 -44.357 c 0.618 -3.304 3.798 -5.482 7.102 -4.864 l 0 0 c 3.304 0.618 5.482 3.798 4.864 7.102 L 75.705 67.726 z" style="stroke: none; stroke-width: 1; stroke-dasharray: none; stroke-linecap: butt; stroke-linejoin: miter; stroke-miterlimit: 10; fill: rgb(123,71,231); fill-rule: nonzero; opacity: 1;" transform=" matrix(1 0 0 1 0 0) " stroke-linecap="round" />
	<path d="M 71.125 76.13 l -3.868 3.658 l -2.284 -4.809 c -1.403 -2.954 -1.835 -6.277 -1.234 -9.491 l 0 0 l 11.967 2.238 l 0 0 C 75.104 70.941 73.501 73.883 71.125 76.13 z" style="stroke: none; stroke-width: 1; stroke-dasharray: none; stroke-linecap: butt; stroke-linejoin: miter; stroke-miterlimit: 10; fill: rgb(255,255,255); fill-rule: nonzero; opacity: 1;" transform=" matrix(1 0 0 1 0 0) " stroke-linecap="round" />
	<path d="M 83.26 27.329 l -11.967 -2.238 l 0.741 -3.96 c 0.618 -3.304 3.798 -5.482 7.102 -4.864 l 0 0 c 3.304 0.618 5.482 3.798 4.864 7.102 L 83.26 27.329 z" style="stroke: none; stroke-width: 1; stroke-dasharray: none; stroke-linecap: butt; stroke-linejoin: miter; stroke-miterlimit: 10; fill: rgb(123,71,231); fill-rule: nonzero; opacity: 1;" transform=" matrix(1 0 0 1 0 0) " stroke-linecap="round" />
	<path d="M 70.793 61.887 c -0.061 0 -0.123 -0.006 -0.185 -0.017 c -0.543 -0.102 -0.901 -0.624 -0.8 -1.167 l 5.361 -28.669 c 0.103 -0.542 0.628 -0.9 1.167 -0.799 c 0.543 0.102 0.901 0.624 0.8 1.167 L 71.775 61.07 C 71.685 61.552 71.265 61.887 70.793 61.887 z" style="stroke: none; stroke-width: 1; stroke-dasharray: none; stroke-linecap: butt; stroke-linejoin: miter; stroke-miterlimit: 10; fill: rgb(255,255,255); fill-rule: nonzero; opacity: 1;" transform=" matrix(1 0 0 1 0 0) " stroke-linecap="round" />
</g>
</svg>