<svg width="20" height="19" viewBox="0 0 20 19" fill="none" xmlns="http://www.w3.org/2000/svg">
<path fill-rule="evenodd" clip-rule="evenodd" d="M10 3.43121L10.765 2.60927C12.8777 0.339553 16.3029 0.339554 18.4155 2.60927C20.5282 4.87899 20.5282 8.55892 18.4155 10.8286L11.5301 18.2261C10.685 19.134 9.31495 19.134 8.4699 18.2261L1.58447 10.8286C-0.528156 8.55892 -0.528155 4.87898 1.58447 2.60927C3.69709 0.339553 7.12233 0.339554 9.23495 2.60927L10 3.43121ZM15 3.15698C14.5858 3.15698 14.25 3.49277 14.25 3.90698C14.25 4.3212 14.5858 4.65698 15 4.65698C15.6904 4.65698 16.25 5.21663 16.25 5.90698C16.25 6.3212 16.5858 6.65698 17 6.65698C17.4142 6.65698 17.75 6.3212 17.75 5.90698C17.75 4.3882 16.5188 3.15698 15 3.15698Z" fill="#FF70F1"/>
</svg>
