<svg width="18" height="22" viewBox="0 0 18 22" fill="none" xmlns="http://www.w3.org/2000/svg">
<path fill-rule="evenodd" clip-rule="evenodd" d="M7.75 1C7.75 0.585786 7.41421 0.25 7 0.25C6.58579 0.25 6.25 0.585786 6.25 1V3C6.25 3.41421 6.58579 3.75 7 3.75C7.41421 3.75 7.75 3.41421 7.75 3V1ZM11.75 4C11.75 3.58579 11.4142 3.25 11 3.25C10.5858 3.25 10.25 3.58579 10.25 4V6C10.25 6.41421 10.5858 6.75 11 6.75C11.4142 6.75 11.75 6.41421 11.75 6V4ZM4.21458 5.7186C4.61148 5.60009 4.83716 5.18227 4.71865 4.78537C4.60014 4.38848 4.18232 4.1628 3.78542 4.2813C2.82265 4.56877 1.97974 4.9478 1.36076 5.41753C0.751927 5.87957 0.25 6.5195 0.25 7.32619C0.25 11.1598 2.2668 14.5164 5.25 16.0838V19.0109C5.25 21.0525 7.4071 22.3637 9.22802 21.4594L11.228 20.4661C12.1589 20.0038 12.75 19.0568 12.75 18.0176V16.0838C15.7332 14.5164 17.75 11.1598 17.75 7.32619C17.75 6.5195 17.2481 5.87957 16.6392 5.41753C16.0203 4.9478 15.1774 4.56877 14.2146 4.2813C13.8177 4.1628 13.3999 4.38848 13.2814 4.78537C13.1628 5.18227 13.3885 5.60009 13.7854 5.7186C14.6516 5.97722 15.3087 6.29081 15.7325 6.61242C16.1664 6.94172 16.25 7.19187 16.25 7.32619C16.25 7.44407 16.1885 7.64772 15.8757 7.9232C15.564 8.19763 15.07 8.47898 14.3951 8.73039C13.0508 9.2311 11.1435 9.55598 9 9.55598C6.8565 9.55598 4.94921 9.2311 3.60493 8.73039C2.92995 8.47898 2.43598 8.19763 2.12435 7.9232C1.81152 7.64772 1.75 7.44407 1.75 7.32619C1.75 7.19187 1.83361 6.94172 2.26754 6.61242C2.69133 6.29081 3.34842 5.97722 4.21458 5.7186ZM7 5.25C7.41421 5.25 7.75 5.58579 7.75 6V7C7.75 7.41421 7.41421 7.75 7 7.75C6.58579 7.75 6.25 7.41421 6.25 7V6C6.25 5.58579 6.58579 5.25 7 5.25Z" fill="#28303F"/>
</svg>
