<svg width="35" height="35" viewBox="0 0 35 35" fill="none" xmlns="http://www.w3.org/2000/svg">
<circle cx="17.5" cy="17.5" r="17.5" fill="#8E8EEB" fill-opacity="0.2"/>
<circle cx="17.5" cy="17.5" r="13.125" fill="#8E8EEB" fill-opacity="0.3"/>
<path fill-rule="evenodd" clip-rule="evenodd" d="M17.5 21.875C19.25 21.875 22.75 17.7745 22.75 14.875C22.75 11.9755 20.3995 9.625 17.5 9.625C14.6005 9.625 12.25 11.9755 12.25 14.875C12.25 17.7745 15.75 21.875 17.5 21.875ZM17.5 16.625C18.4665 16.625 19.25 15.8415 19.25 14.875C19.25 13.9085 18.4665 13.125 17.5 13.125C16.5335 13.125 15.75 13.9085 15.75 14.875C15.75 15.8415 16.5335 16.625 17.5 16.625Z" fill="#8E8EEB"/>
<path fill-rule="evenodd" clip-rule="evenodd" d="M13.1624 20.2422C12.3437 20.4449 11.6012 20.9037 11.0507 21.5643L10.6087 22.0947C9.52319 23.3973 10.4495 25.375 12.1452 25.375H22.855C24.5507 25.375 25.477 23.3973 24.3915 22.0947L23.9495 21.5643C23.399 20.9037 22.6565 20.4449 21.8378 20.2422C21.8292 20.2531 21.8207 20.264 21.8121 20.2748C21.2103 21.0383 20.5292 21.7279 19.8451 22.2398C19.2127 22.7131 18.377 23.1875 17.5001 23.1875C16.6232 23.1875 15.7875 22.7131 15.1551 22.2398C14.471 21.7279 13.7899 21.0383 13.1881 20.2748C13.1795 20.264 13.171 20.2531 13.1624 20.2422Z" fill="#8E8EEB"/>
</svg>
