<svg width="15" height="17" viewBox="0 0 15 17" fill="none" xmlns="http://www.w3.org/2000/svg">
<path fill-rule="evenodd" clip-rule="evenodd" d="M7.5 12.875C9.25 12.875 12.75 8.7745 12.75 5.875C12.75 2.9755 10.3995 0.625 7.5 0.625C4.6005 0.625 2.25 2.9755 2.25 5.875C2.25 8.7745 5.75 12.875 7.5 12.875ZM7.5 7.625C8.4665 7.625 9.25 6.8415 9.25 5.875C9.25 4.9085 8.4665 4.125 7.5 4.125C6.5335 4.125 5.75 4.9085 5.75 5.875C5.75 6.8415 6.5335 7.625 7.5 7.625Z" fill="#F23859" fill-opacity="0.7"/>
<path fill-rule="evenodd" clip-rule="evenodd" d="M3.16242 11.2422C2.34372 11.4449 1.60124 11.9037 1.05071 12.5643L0.608737 13.0947C-0.476808 14.3973 0.449504 16.375 2.14518 16.375H12.855C14.5507 16.375 15.477 14.3973 14.3915 13.0947L13.9495 12.5643C13.399 11.9037 12.6565 11.4449 11.8378 11.2422C11.8292 11.2531 11.8207 11.264 11.8121 11.2748C11.2103 12.0383 10.5292 12.7279 9.84509 13.2398C9.21267 13.7131 8.37701 14.1875 7.5001 14.1875C6.62318 14.1875 5.78752 13.7131 5.1551 13.2398C4.47099 12.7279 3.78988 12.0383 3.18808 11.2748C3.17952 11.264 3.17097 11.2531 3.16242 11.2422Z" fill="#F23859" fill-opacity="0.7"/>
</svg>
