<svg width="18" height="20" viewBox="0 0 18 20" fill="none" xmlns="http://www.w3.org/2000/svg">
<path fill-rule="evenodd" clip-rule="evenodd" d="M4.76279 0.288447C5.15575 0.157461 5.58049 0.369831 5.71147 0.762788C5.84246 1.15575 5.63009 1.58049 5.23713 1.71147L5.08318 1.76279C3.5155 2.28535 2.28535 3.5155 1.76279 5.08318L1.71147 5.23713C1.58049 5.63009 1.15575 5.84246 0.762789 5.71147C0.369831 5.58049 0.157461 5.15575 0.288447 4.76279L0.339764 4.60884C1.01162 2.59326 2.59326 1.01162 4.60884 0.339764L4.76279 0.288447ZM13.237 0.288447C12.8441 0.157461 12.4194 0.369831 12.2884 0.762788C12.1574 1.15575 12.3698 1.58049 12.7627 1.71147L12.9167 1.76279C14.4843 2.28535 15.7145 3.5155 16.237 5.08318L16.2884 5.23713C16.4194 5.63009 16.8441 5.84246 17.237 5.71147C17.63 5.58049 17.8424 5.15575 17.7114 4.76279L17.6601 4.60884C16.9882 2.59326 15.4066 1.01162 13.391 0.339764L13.237 0.288447ZM8.99992 2C5.77086 2 3.05374 4.49086 2.67956 7.79403L2.33468 10.8385C2.24898 11.595 1.94238 12.3069 1.45541 12.88C0.422005 14.0964 1.26073 16 2.83005 16H15.1698C16.7391 16 17.5778 14.0964 16.5444 12.88C16.0575 12.3069 15.7509 11.595 15.6652 10.8385L15.3203 7.79403C14.9461 4.49086 12.229 2 8.99992 2ZM8.99992 20C10.3565 20 11.5147 19.1992 11.972 18.0715C11.9911 18.0245 11.9999 17.974 11.9999 17.9233C11.9999 17.6895 11.8104 17.5 11.5766 17.5H6.42321C6.18943 17.5 5.99992 17.6895 5.99992 17.9233C5.99992 17.974 6.00874 18.0245 6.02781 18.0715C6.48518 19.1992 7.64339 20 8.99992 20Z" fill="#28303F"/>
</svg>
