<svg width="21" height="20" viewBox="0 0 21 20" fill="none" xmlns="http://www.w3.org/2000/svg">
<path fill-rule="evenodd" clip-rule="evenodd" d="M16.323 3.16152L10.8944 0.44723C10.3314 0.165702 9.66862 0.165702 9.10557 0.44723L3.677 3.16151L10 6.32301L16.323 3.16152ZM2 9.67712V14.764C2 15.5215 2.428 16.214 3.10557 16.5528L9.10557 19.5528C9.66863 19.8343 10.3314 19.8343 10.8944 19.5528L16.8944 16.5528C17.572 16.214 18 15.5215 18 14.764V9.67713L12.6708 12.3417C11.9942 12.68 11.1716 12.4616 10.7519 11.8321L10 10.7042L9.24808 11.8321C8.82846 12.4616 8.00581 12.68 7.32919 12.3417L2 9.67712ZM9.97574 8.01569L2.01562 4.02344L0.0286865 6.98025L8.03113 11.0026L9.97574 8.01569ZM9.97574 8.01569L11.9978 11.0026L20.0171 7.03787L17.9909 4.04956L9.97574 8.01569Z" fill="#8E8EEB"/>
</svg>
