<svg width="14" height="13" viewBox="0 0 14 13" fill="none" xmlns="http://www.w3.org/2000/svg">
<path d="M8.75 10.875V3.375M8.75 10.875H10M8.75 10.875H5.625M8.75 3.375C8.75 1.99429 7.63071 0.875 6.25 0.875H3.75C2.36929 0.875 1.25 1.99429 1.25 3.375V8.375C1.25 9.54076 2.04792 10.5202 3.1274 10.7969M8.75 3.375H10.7557C11.0733 3.375 11.3789 3.49588 11.6106 3.71308L13.3549 5.34837C13.607 5.58468 13.75 5.91478 13.75 6.26029V9.625C13.75 10.3154 13.1904 10.875 12.5 10.875M12.5 10.875C12.5 11.5654 11.9404 12.125 11.25 12.125C10.5596 12.125 10 11.5654 10 10.875M12.5 10.875C12.5 10.1846 11.9404 9.625 11.25 9.625C10.5596 9.625 10 10.1846 10 10.875M5.625 10.875C5.625 11.5654 5.06536 12.125 4.375 12.125C3.68464 12.125 3.125 11.5654 3.125 10.875C3.125 10.8488 3.12581 10.8227 3.1274 10.7969M5.625 10.875C5.625 10.1846 5.06536 9.625 4.375 9.625C3.71089 9.625 3.16774 10.1429 3.1274 10.7969" stroke="#111111" stroke-opacity="0.6"/>
</svg>
