<svg width="16" height="16" viewBox="0 0 16 16" fill="none" xmlns="http://www.w3.org/2000/svg">
<path d="M6.52461 1.45356C7.12812 0.182149 8.87187 0.182146 9.47539 1.45356L10.5184 3.65088C10.7581 4.15576 11.2213 4.5057 11.7572 4.58666L14.0895 4.93902C15.439 5.1429 15.9779 6.86716 15.0013 7.85681L13.3137 9.56719C12.9259 9.96019 12.749 10.5264 12.8405 11.0813L13.2389 13.4964C13.4694 14.8938 12.0587 15.9595 10.8517 15.2997L8.76562 14.1595C8.28631 13.8975 7.71369 13.8975 7.23438 14.1595L5.14832 15.2997C3.94129 15.9595 2.53057 14.8938 2.76109 13.4964L3.15949 11.0813C3.25103 10.5264 3.07408 9.96019 2.68631 9.56719L0.998656 7.85681C0.0221496 6.86716 0.560996 5.1429 1.9105 4.93902L4.24278 4.58666C4.77867 4.5057 5.24192 4.15576 5.48158 3.65088L6.52461 1.45356Z" fill="#F2EE85"/>
</svg>
