<svg width="21" height="20" viewBox="0 0 21 20" fill="none" xmlns="http://www.w3.org/2000/svg">
<path d="M8.03281 1.27141C8.8375 -0.423802 11.1625 -0.423805 11.9672 1.27141L13.3579 4.20118C13.6774 4.87435 14.2951 5.34094 15.0096 5.44888L18.1193 5.91869C19.9187 6.19053 20.6371 8.48954 19.3351 9.80908L17.0849 12.0896C16.5679 12.6136 16.332 13.3685 16.454 14.1084L16.9852 17.3285C17.2926 19.1918 15.4116 20.6126 13.8022 19.7329L11.0208 18.2126C10.3817 17.8633 9.61825 17.8633 8.97917 18.2126L6.19776 19.7329C4.58839 20.6126 2.70742 19.1918 3.01479 17.3286L3.54599 14.1084C3.66804 13.3685 3.43211 12.6136 2.91508 12.0896L0.664875 9.80908C-0.637134 8.48954 0.0813282 6.19053 1.88066 5.91869L4.99037 5.44888C5.70489 5.34094 6.32257 4.87435 6.64211 4.20118L8.03281 1.27141Z" fill="#FEB220"/>
<path d="M14.0001 5C12.5 3.5 12.5 0 10.0001 0C9.99982 9.49994 10.0001 18 10.0001 18C11.5003 17.9999 13.0003 20 15.0003 20C19 19.5 16 15 16.5001 13C17.0003 11.4999 20.1 10.4 20.0001 8C20.0003 4.99995 15.5 6 14.0001 5Z" fill="#BFBAB1"/>
</svg>
