<svg width="24" height="24" viewBox="0 0 24 24" fill="none" xmlns="http://www.w3.org/2000/svg">
<path d="M12.7915 10.2883C12.9433 9.79432 13.025 9.26961 13.025 8.72583C13.025 5.79182 10.6465 3.41333 7.71252 3.41333C4.77851 3.41333 2.40002 5.79182 2.40002 8.72583C2.40002 11.6598 4.77851 14.0383 7.71252 14.0383C8.14307 14.0383 8.56166 13.9871 8.96252 13.8904" stroke="white" stroke-linecap="round"/>
<path d="M9.58752 1.79712C8.99148 1.62854 8.36254 1.53833 7.71252 1.53833C7.06251 1.53833 6.43356 1.62854 5.83752 1.79712" stroke="white" stroke-linecap="round"/>
<path d="M12.7125 12.1633L8.96252 12.1633" stroke="white" stroke-linecap="round" stroke-linejoin="round"/>
<path d="M8.65002 9.03833C8.65002 9.5561 8.23029 9.97583 7.71252 9.97583C7.19476 9.97583 6.77502 9.5561 6.77502 9.03833C6.77502 8.52056 7.19476 8.10083 7.71252 8.10083C8.23029 8.10083 8.65002 8.52056 8.65002 9.03833Z" stroke="white"/>
<path d="M7.71252 7.78833V5.91333" stroke="white" stroke-linecap="round" stroke-linejoin="round"/>
</svg>
