<svg width="20" height="20" viewBox="0 0 20 20" fill="none" xmlns="http://www.w3.org/2000/svg">
<path fill-rule="evenodd" clip-rule="evenodd" d="M11.5759 0.500115C10.4043 0.417863 9.24835 0.852191 8.41144 1.68911L1.84608 8.25447C0.26274 9.83781 0.24552 12.3877 1.80762 13.9498L6.05026 18.1924C7.61235 19.7545 10.1622 19.7373 11.7456 18.154L18.3109 11.5886C19.1478 10.7517 19.5822 9.59575 19.4999 8.42419L19.2216 4.45987C19.0826 2.48041 17.5196 0.917407 15.5402 0.778436L11.5759 0.500115ZM12.4142 7.5859C13.1952 8.36695 14.4615 8.36695 15.2426 7.5859C16.0236 6.80485 16.0236 5.53852 15.2426 4.75748C14.4615 3.97643 13.1952 3.97643 12.4142 4.75748C11.6331 5.53852 11.6331 6.80485 12.4142 7.5859Z" fill="#28303F"/>
</svg>
