<svg width="40" height="40" viewBox="0 0 40 40" fill="none" xmlns="http://www.w3.org/2000/svg">
<path fill-rule="evenodd" clip-rule="evenodd" d="M14.5 5.50001C14.5 2.46244 16.9624 7.62939e-06 20 7.62939e-06C23.0376 7.62939e-06 25.5 2.46244 25.5 5.50001V5.83131C30.2699 6.41181 34.7261 7.73596 38.6571 9.6516C39.4018 10.0145 39.7113 10.9124 39.3484 11.6571C38.9855 12.4018 38.0876 12.7113 37.3429 12.3484C32.3596 9.91996 26.4085 8.50001 20 8.50001C13.5915 8.50001 7.64035 9.91996 2.65708 12.3484C1.91238 12.7113 1.01448 12.4018 0.651565 11.6571C0.288653 10.9124 0.598159 10.0145 1.34286 9.6516C5.27383 7.73595 9.73004 6.4118 14.5 5.83131V5.50001ZM32.5306 32.5661C32.2315 36.7525 28.748 39.9961 24.5509 39.9961H15.4488C11.2517 39.9961 7.76816 36.7525 7.46913 32.5661L6.09268 13.2958C10.3273 11.8192 15.0373 10.9961 19.9998 10.9961C24.9624 10.9961 29.6724 11.8192 33.907 13.2958L32.5306 32.5661ZM17.4998 17.9961C17.4998 17.1677 16.8283 16.4961 15.9998 16.4961C15.1714 16.4961 14.4998 17.1677 14.4998 17.9961V29.9961C14.4998 30.8245 15.1714 31.4961 15.9998 31.4961C16.8283 31.4961 17.4998 30.8245 17.4998 29.9961V17.9961ZM23.9998 16.4961C24.8283 16.4961 25.4998 17.1677 25.4998 17.9961V29.9961C25.4998 30.8245 24.8283 31.4961 23.9998 31.4961C23.1714 31.4961 22.4998 30.8245 22.4998 29.9961V17.9961C22.4998 17.1677 23.1714 16.4961 23.9998 16.4961Z" fill="white"/>
</svg>
